<?xml version="1.0" encoding="UTF-8" standalone="no"?>
<svg
   width="24.556999"
   height="19.862"
   viewBox="0 0 24.557 19.861999"
   version="1.1"
   id="svg16"
   sodipodi:docname="email.svg"
   xmlns:inkscape="http://www.inkscape.org/namespaces/inkscape"
   xmlns:sodipodi="http://sodipodi.sourceforge.net/DTD/sodipodi-0.dtd"
   xmlns="http://www.w3.org/2000/svg"
   xmlns:svg="http://www.w3.org/2000/svg">
  <sodipodi:namedview
     id="namedview18"
     pagecolor="#ffffff"
     bordercolor="#111111"
     borderopacity="1"
     inkscape:showpageshadow="0"
     inkscape:pageopacity="0"
     inkscape:pagecheckerboard="1"
     inkscape:deskcolor="#d1d1d1"
     showgrid="false" />
  <defs
     id="defs4">
    <clipPath
       id="clip-path">
      <rect
         id="Rectángulo_18314"
         data-name="Rectángulo 18314"
         width="24.535999"
         height="9.309"
         fill="none"
         x="0"
         y="0" />
    </clipPath>
  </defs>
  <g
     id="Grupo_12040"
     data-name="Grupo 12040"
     transform="translate(-1.5937864e-7,0.00199998)">
    <g
       id="Icon_feather-calendar"
       data-name="Icon feather-calendar"
       transform="translate(0.021)">
      <g
         id="Grupo_11782"
         data-name="Grupo 11782"
         transform="translate(0,9.878)">
        <path
           id="Trazado_11752"
           data-name="Trazado 11752"
           d="m 2114.562,1390.8 h -18.8 a 2.87,2.87 0 0 1 -2.867,-2.867 v -7.11 h 1.615 v 7.11 a 1.254,1.254 0 0 0 1.252,1.252 h 18.8 a 1.253,1.253 0 0 0 1.251,-1.252 v -7.11 h 1.615 v 7.11 a 2.87,2.87 0 0 1 -2.866,2.867 z"
           transform="translate(-2092.898,-1380.818)"
           fill="#e9e6e1" />
      </g>
      <g
         id="Grupo_11783"
         data-name="Grupo 11783">
        <path
           id="Trazado_11753"
           data-name="Trazado 11753"
           d="m 2117.429,1367.6 h -1.615 v -3.854 a 1.253,1.253 0 0 0 -1.251,-1.252 h -18.8 a 1.254,1.254 0 0 0 -1.252,1.252 v 3.854 h -1.611 v -3.854 a 2.87,2.87 0 0 1 2.867,-2.867 h 18.8 a 2.87,2.87 0 0 1 2.867,2.867 z"
           transform="translate(-2092.898,-1360.881)"
           fill="#e9e6e1" />
      </g>
    </g>
    <g
       id="Grupo_11786"
       data-name="Grupo 11786"
       transform="translate(0,3.848)">
      <g
         id="Grupo_11785"
         data-name="Grupo 11785"
         clip-path="url(#clip-path)">
        <g
           id="Grupo_11784"
           data-name="Grupo 11784"
           transform="translate(-0.16,1.167)">
          <path
             id="Trazado_11754"
             data-name="Trazado 11754"
             d="m 2104.991,1379.25 -12.458,-6.609 0.87,-1.639 11.594,6.151 11.743,-6.153 0.86,1.643 z"
             transform="translate(-2092.532,-1371.002)"
             fill="#e9e6e1" />
        </g>
      </g>
    </g>
  </g>
</svg>
