<?xml version="1.0" encoding="UTF-8" standalone="no"?>
<svg
   width="20.726"
   height="20.726"
   viewBox="0 0 20.726 20.726"
   version="1.1"
   id="svg262"
   sodipodi:docname="globe.svg"
   xmlns:inkscape="http://www.inkscape.org/namespaces/inkscape"
   xmlns:sodipodi="http://sodipodi.sourceforge.net/DTD/sodipodi-0.dtd"
   xmlns="http://www.w3.org/2000/svg"
   xmlns:svg="http://www.w3.org/2000/svg">
  <defs
     id="defs266" />
  <sodipodi:namedview
     id="namedview264"
     pagecolor="#ffffff"
     bordercolor="#111111"
     borderopacity="1"
     inkscape:showpageshadow="0"
     inkscape:pageopacity="0"
     inkscape:pagecheckerboard="1"
     inkscape:deskcolor="#d1d1d1"
     showgrid="false" />
  <path
     id="Trazado_11934"
     data-name="Trazado 11934"
     d="M 10.363,0 A 10.363,10.363 0 1 0 20.726,10.363 10.375,10.375 0 0 0 10.363,0 Z m 0.489,6.519 a 17.2,17.2 0 0 0 3.964,-0.489 15.342,15.342 0 0 1 0.59,3.845 h -4.554 z m 0,-0.978 V 1.1 c 1.493,0.278 2.817,1.813 3.651,4 A 16.258,16.258 0 0 1 10.852,5.541 Z M 9.874,1.1 V 5.521 A 15.6,15.6 0 0 1 6.285,4.949 C 7.122,2.842 8.417,1.37 9.874,1.1 Z m 0,5.4 V 9.874 H 5.32 A 15.251,15.251 0 0 1 5.959,5.869 16.57,16.57 0 0 0 9.874,6.5 Z M 4.342,9.874 H 1 A 9.327,9.327 0 0 1 3,4.561 10.836,10.836 0 0 0 5.008,5.554 16.436,16.436 0 0 0 4.342,9.874 Z m 0,0.978 A 16.49,16.49 0 0 0 4.979,15.067 11.3,11.3 0 0 0 2.899,16.031 9.321,9.321 0 0 1 1,10.852 Z m 0.978,0 h 4.554 v 3.366 A 16.926,16.926 0 0 0 5.931,14.774 15.311,15.311 0 0 1 5.32,10.852 Z M 9.874,15.2 v 4.433 C 8.4,19.353 7.088,17.848 6.253,15.7 a 15.98,15.98 0 0 1 3.621,-0.5 z m 0.978,4.433 V 15.2 a 15.98,15.98 0 0 1 3.622,0.5 c -0.836,2.148 -2.146,3.653 -3.622,3.928 z m 0,-5.41 v -3.371 h 4.554 a 15.311,15.311 0 0 1 -0.612,3.922 16.926,16.926 0 0 0 -3.942,-0.556 z m 5.532,-3.366 h 3.34 a 9.321,9.321 0 0 1 -1.9,5.179 11.3,11.3 0 0 0 -2.08,-0.964 16.49,16.49 0 0 0 0.64,-4.22 z m 0,-0.978 a 16.542,16.542 0 0 0 -0.61,-4.118 11.777,11.777 0 0 0 2.149,-0.932 9.318,9.318 0 0 1 1.8,5.05 z m 0.91,-5.817 A 10.963,10.963 0 0 1 15.472,4.834 9.218,9.218 0 0 0 13.481,1.526 9.4,9.4 0 0 1 17.294,4.057 Z M 7.246,1.521 A 9.051,9.051 0 0 0 5.326,4.628 9.978,9.978 0 0 1 3.652,3.816 9.4,9.4 0 0 1 7.246,1.521 Z M 3.539,16.787 A 10.476,10.476 0 0 1 5.288,15.994 9.139,9.139 0 0 0 7.246,19.2 9.4,9.4 0 0 1 3.539,16.787 Z m 9.942,2.413 a 9.138,9.138 0 0 0 1.957,-3.211 10.475,10.475 0 0 1 1.749,0.793 9.4,9.4 0 0 1 -3.706,2.418 z"
     fill="#e9e6e1"
     inkscape:export-filename="../c2e3c71c/globe1.png"
     inkscape:export-xdpi="96"
     inkscape:export-ydpi="96" />
</svg>
