<?xml version="1.0" encoding="UTF-8" standalone="no"?>
<svg
   width="20.528006"
   height="23.741001"
   viewBox="0 0 20.528006 23.741002"
   version="1.1"
   id="svg5"
   sodipodi:docname="iso.svg"
   xmlns:inkscape="http://www.inkscape.org/namespaces/inkscape"
   xmlns:sodipodi="http://sodipodi.sourceforge.net/DTD/sodipodi-0.dtd"
   xmlns="http://www.w3.org/2000/svg"
   xmlns:svg="http://www.w3.org/2000/svg">
  <defs
     id="defs9" />
  <sodipodi:namedview
     id="namedview7"
     pagecolor="#ffffff"
     bordercolor="#111111"
     borderopacity="1"
     inkscape:showpageshadow="0"
     inkscape:pageopacity="0"
     inkscape:pagecheckerboard="1"
     inkscape:deskcolor="#d1d1d1"
     showgrid="false" />
  <g
     id="Grupo_12068"
     data-name="Grupo 12068"
     transform="rotate(90,1380.869,-19.394996)"
     inkscape:export-filename="../1f0cb039/bro-icon.svg"
     inkscape:export-xdpi="96"
     inkscape:export-ydpi="96">
    <path
       id="Trazado_11935"
       data-name="Trazado 11935"
       d="M 9.48,1.192 H 0.6 A 0.074,0.074 0 0 0 0.526,1.266 v 0.269 a 0.073,0.073 0 0 0 0.057,0.072 l 2.453,0.56 v 21.786 l -2.453,0.56 a 0.073,0.073 0 0 0 -0.057,0.072 v 0.27 A 0.073,0.073 0 0 0 0.6,24.929 H 9.48 A 0.074,0.074 0 0 0 9.554,24.855 V 1.266 A 0.074,0.074 0 0 0 9.48,1.192 Z"
       transform="rotate(-90,1380.536,-18.536)"
       fill="#e9e6e1" />
    <path
       id="Trazado_11936"
       data-name="Trazado 11936"
       d="m 25.482,12.453 c 4.7,-0.43 6.431,-3.508 6.431,-5.56 v -0.1 c 0,-3.506 -2.762,-5.6 -7.388,-5.6 h -1.783 a 0.074,0.074 0 0 0 -0.074,0.074 v 0.269 a 0.074,0.074 0 0 0 0.074,0.074 h 0.583 c 1.679,0 2.364,1.521 2.364,5.251 V 7.13 c 0,3.9 -0.521,5.149 -2.146,5.149 h -0.8 a 0.074,0.074 0 0 0 -0.074,0.074 v 0.269 a 0.074,0.074 0 0 0 0.074,0.074 h 0.728 a 1.9,1.9 0 0 1 1.9,1.126 11.046,11.046 0 0 1 0.647,4.6 v 0.809 c 0,4.928 -0.88,5.284 -2.328,5.284 h -0.91 a 0.074,0.074 0 0 0 -0.074,0.074 v 0.27 a 0.074,0.074 0 0 0 0.074,0.074 h 1.965 c 2.777,0 4.919,-0.711 6.365,-2.114 a 5.742,5.742 0 0 0 1.751,-4.093 v -0.2 c -0.002,-2.762 -2.533,-5.654 -7.379,-6.073 z"
       transform="rotate(-90,1386.4395,-12.6325)"
       fill="#e9e6e1" />
  </g>
</svg>
